ffmpeg version 3.4.8-0ubuntu0.2 Copyright (c) 2000-2020 the FFmpeg developers
  built with gcc 7 (Ubuntu 7.5.0-3ubuntu1~18.04)
  configuration: --prefix=/usr --extra-version=0ubuntu0.2 --toolchain=hardened --libdir=/usr/lib/x86_64-linux-gnu --incdir=/usr/include/x86_64-linux-gnu --enable-gpl --disable-stripping --enable-avresample --enable-avisynth --enable-gnutls --enable-ladspa --enable-libass --enable-libbluray --enable-libbs2b --enable-libcaca --enable-libcdio --enable-libflite --enable-libfontconfig --enable-libfreetype --enable-libfribidi --enable-libgme --enable-libgsm --enable-libmp3lame --enable-libmysofa --enable-libopenjpeg --enable-libopenmpt --enable-libopus --enable-libpulse --enable-librubberband --enable-librsvg --enable-libshine --enable-libsnappy --enable-libsoxr --enable-libspeex --enable-libssh --enable-libtheora --enable-libtwolame --enable-libvorbis --enable-libvpx --enable-libwavpack --enable-libwebp --enable-libx265 --enable-libxml2 --enable-libxvid --enable-libzmq --enable-libzvbi --enable-omx --enable-openal --enable-opengl --enable-sdl2 --enable-libdc1394 --enable-libdrm --enable-libiec61883 --enable-chromaprint --enable-frei0r --enable-libopencv --enable-libx264 --enable-shared
  libavutil      55. 78.100 / 55. 78.100
  libavcodec     57.107.100 / 57.107.100
  libavformat    57. 83.100 / 57. 83.100
  libavdevice    57. 10.100 / 57. 10.100
  libavfilter     6.107.100 /  6.107.100
  libavresample   3.  7.  0 /  3.  7.  0
  libswscale      4.  8.100 /  4.  8.100
  libswresample   2.  9.100 /  2.  9.100
  libpostproc    54.  7.100 / 54.  7.100
[rawvideo @ 0x560e52014a20] Estimating duration from bitrate, this may be inaccurate
Input #0, rawvideo, from '../../SVC-Encoder-20220109T061506Z-001/SVC-Encoder/Dataset/RollerCoaster/6f_2x2/tile_yuv/f5_t3_480x480.yuv':
  Duration: 00:00:10.00, start: 0.000000, bitrate: 82944 kb/s
    Stream #0:0: Video: rawvideo (I420 / 0x30323449), yuv420p, 480x480, 82944 kb/s, 30 tbr, 30 tbn, 30 tbc
Stream mapping:
  Stream #0:0 -> #0:0 (rawvideo (native) -> h264 (libx264))
Press [q] to stop, [?] for help
[libx264 @ 0x560e52021c60] using cpu capabilities: MMX2 SSE2Fast LZCNT SSSE3 SSE4.2 AVX
[libx264 @ 0x560e52021c60] profile High, level 3.0
Output #0, rawvideo, to 'RollerCoaster_f5_t3_480x480_x264_QP_28.h264':
  Metadata:
    encoder         : Lavf57.83.100
    Stream #0:0: Video: h264 (libx264), yuv420p, 480x480, q=-1--1, 30 fps, 30 tbn, 30 tbc
    Metadata:
      encoder         : Lavc57.107.100 libx264
    Side data:
      cpb: bitrate max/min/avg: 0/0/0 buffer size: 0 vbv_delay: -1
frame=  102 fps=0.0 q=34.0 PSNR=Y:nan U:nan V:nan *:nan size=     102kB time=00:00:01.96 bitrate= 426.7kbits/s speed=3.91x    frame=  171 fps=170 q=34.0 PSNR=Y:nan U:nan V:nan *:nan size=     202kB time=00:00:04.26 bitrate= 386.9kbits/s speed=4.25x    frame=  234 fps=155 q=34.0 PSNR=Y:nan U:nan V:nan *:nan size=     256kB time=00:00:06.36 bitrate= 329.4kbits/s speed=4.23x    frame=  300 fps=137 q=34.0 LPSNR=Y:inf U:inf V:inf *:inf size=     441kB time=00:00:09.93 bitrate= 363.3kbits/s speed=4.53x    
video:441kB audio:0kB subtitle:0kB other streams:0kB global headers:0kB muxing overhead: 0.000000%
[libx264 @ 0x560e52021c60] frame I:2     Avg QP:27.26  size: 21966  PSNR Mean Y:38.80 U:44.62 V:47.01 Avg:40.13 Global:39.93
[libx264 @ 0x560e52021c60] frame P:76    Avg QP:29.00  size:  3664  PSNR Mean Y:37.12 U:44.60 V:46.37 Avg:38.56 Global:38.53
[libx264 @ 0x560e52021c60] frame B:222   Avg QP:33.53  size:   580  PSNR Mean Y:36.77 U:44.46 V:46.29 Avg:38.24 Global:38.22
[libx264 @ 0x560e52021c60] consecutive B-frames:  1.3%  0.0%  0.0% 98.7%
[libx264 @ 0x560e52021c60] mb I  I16..4:  5.8% 83.7% 10.5%
[libx264 @ 0x560e52021c60] mb P  I16..4:  1.0%  3.1%  0.6%  P16..4: 42.0% 18.3%  7.4%  0.0%  0.0%    skip:27.8%
[libx264 @ 0x560e52021c60] mb B  I16..4:  0.0%  0.1%  0.0%  B16..8: 32.5%  2.7%  0.5%  direct: 0.2%  skip:64.0%  L0:34.0% L1:64.5% BI: 1.5%
[libx264 @ 0x560e52021c60] 8x8 transform intra:72.6% inter:69.2%
[libx264 @ 0x560e52021c60] coded y,uvDC,uvAC intra: 64.9% 69.3% 25.1% inter: 8.0% 4.8% 0.0%
[libx264 @ 0x560e52021c60] i16 v,h,dc,p:  6% 56% 15% 23%
[libx264 @ 0x560e52021c60] i8 v,h,dc,ddl,ddr,vr,hd,vl,hu:  7% 27% 16%  3% 11% 17%  8%  3%  7%
[libx264 @ 0x560e52021c60] i4 v,h,dc,ddl,ddr,vr,hd,vl,hu: 10% 27% 21%  3% 10% 18%  6%  2%  4%
[libx264 @ 0x560e52021c60] i8c dc,h,v,p: 41% 36% 11% 13%
[libx264 @ 0x560e52021c60] Weighted P-Frames: Y:0.0% UV:0.0%
[libx264 @ 0x560e52021c60] ref P L0: 62.1% 19.8% 13.1%  5.0%
[libx264 @ 0x560e52021c60] ref B L0: 90.7%  8.4%  0.9%
[libx264 @ 0x560e52021c60] ref B L1: 91.0%  9.0%
[libx264 @ 0x560e52021c60] PSNR Mean Y:36.872 U:44.500 V:46.314 Avg:38.331 Global:38.305 kb/s:360.90
